# xmcd
#
# Track frame offsets: 
#        183
#        12250
#        25455
#        38255
#        51223
#        66263
#        80433
#        96315
#        111053
#        119595
#        133513
#        146860
#        159570
#        172843
#        185793
#        198708
#        211840
#        224658
#        237368
#        249750
#        263453
#        275153
#
# Disc length: 3839 seconds
#
# Revision: 1
# Processed by: cddbd v1.5.1PL2 Copyright (c) Steve Scherf et al.
# Submitted via: ExactAudioCopy v0.95b3
#
DISCID=450efd16
DTITLE=Sydney Bechet - Bluebird Sessions 2
DYEAR=1900
DGENRE=Jazz
TTITLE0=Shake It and Break It (1)
TTITLE1=Shake It and Break It (2)
TTITLE2=Old Man Blues (1)
TTITLE3=Old Man Blues (2) 
TTITLE4=Wild Man Blues (1)
TTITLE5=Wild Man Blues (2) 
TTITLE6=Nobody Knows the Way I Feel Dis Mornin'
TTITLE7=Make Me a Pallet on the Floor 
TTITLE8=Shake It and Break It (3)
TTITLE9=St. Louis Blues 
TTITLE10=Blues in Thirds 
TTITLE11=Blue For You, Johnny (1) 
TTITLE12=Blue For You, Johnny (2) 
TTITLE13=Ain't Misbehavin' (1)
TTITLE14=Ain't Misbehavin' (2)
TTITLE15=Save It, Pretty Mama 
TTITLE16=Stompy Jones 
TTITLE17=Muskrat Ramble 
TTITLE18=Coal Black Shine 
TTITLE19=Egyptian Fantasy 
TTITLE20=Baby, Won't You Please Come Home? 
TTITLE21=Slippin' And Slidin' 
EXTD=
EXTT0=
EXTT1=
EXTT2=
EXTT3=
EXTT4=
EXTT5=
EXTT6=
EXTT7=
EXTT8=
EXTT9=
EXTT10=
EXTT11=
EXTT12=
EXTT13=
EXTT14=
EXTT15=
EXTT16=
EXTT17=
EXTT18=
EXTT19=
EXTT20=
EXTT21=
PLAYORDER=
